HIERARCHY
ROOT ui
{
	 OFFSET 0 0 0
	 CHANNELS 3 XPosition YPosition Z Position
	 EndSite
	 {
	 OFFSET 0 -1 0
	 }
}
ROOT li
{
	 OFFSET 0 0 0
	 CHANNELS 3 XPosition YPosition Z Position
	 EndSite
	 {
	 OFFSET 0 -1 0
	 }
}
ROOT ul
{
	 OFFSET 0 0 0
	 CHANNELS 3 XPosition YPosition Z Position
	 EndSite
	 {
	 OFFSET 0 -1 0
	 }
}
ROOT ll
{
	 OFFSET 0 0 0
	 CHANNELS 3 XPosition YPosition Z Position
	 EndSite
	 {
	 OFFSET 0 -1 0
	 }
}
ROOT tt
{
	 OFFSET 0 0 0
	 CHANNELS 3 XPosition YPosition Z Position
	 EndSite
	 {
	 OFFSET 0 -1 0
	 }
}
ROOT tb
{
	 OFFSET 0 0 0
	 CHANNELS 3 XPosition YPosition Z Position
	 EndSite
	 {
	 OFFSET 0 -1 0
	 }
}
ROOT td
{
	 OFFSET 0 0 0
	 CHANNELS 3 XPosition YPosition Z Position
	 EndSite
	 {
	 OFFSET 0 -1 0
	 }
}
ROOT v
{
	 OFFSET 0 0 0
	 CHANNELS 3 XPosition YPosition Z Position
	 EndSite
	 {
	 OFFSET 0 -1 0
	 }
}
ROOT bn
{
	 OFFSET 0 0 0
	 CHANNELS 3 XPosition YPosition Z Position
	 EndSite
	 {
	 OFFSET 0 -1 0
	 }
}
MOTION
Frames: 13
Frame Time: 0.002
-0.003958098888397217	6.757370233535767E-4	0		0.6340801391601563	-2.69560009765625	0		-0.9291509399414063	0.192603271484375	0		-0.30550604248046875	-3.2705693359375	0		2.18691162109375	-1.164497802734375	0		3.6570947265625	-0.737650146484375	0		4.93050341796875	-0.49391412353515624	0		5.93977880859375	0.46340121459960937	0		-0.25424293518066404	5.88536181640625	0		
-0.00385249400138855	7.66435980796814E-4	0		0.6191011352539062	-2.699375244140625	0		-0.9340804443359375	0.18875845336914063	0		-0.33740728759765626	-3.265164794921875	0		2.17427783203125	-1.13532080078125	0		3.654313232421875	-0.724594482421875	0		4.92754248046875	-0.4998796081542969	0		5.93173828125	0.4474670104980469	0		-0.288091796875	5.87978564453125	0		
-0.007793295860290528	-0.0031158530712127683	0		0.6362123413085937	-2.693471435546875	0		-0.9339796752929688	0.18885237121582032	0		-0.3323144226074219	-3.260129150390625	0		2.18462744140625	-1.1073753662109376	0		3.66336962890625	-0.727661865234375	0		4.91257470703125	-0.5057353820800782	0		5.93184326171875	0.4474495544433594	0		-0.25384228515625	5.88553955078125	0		
-0.003670219898223877	9.119380116462708E-4	0		0.6232477416992187	-2.694288330078125	0		-0.933892333984375	0.18893287658691407	0		-0.3411519470214844	-3.246970947265625	0		2.18007373046875	-1.068294677734375	0		3.63977392578125	-0.6934188232421875	0		4.902662109375	-0.5046449584960937	0		5.93601171875	0.4553888854980469	0		-0.2375838165283203	5.89445458984375	0		
-0.003602690935134888	9.663199782371521E-4	0		0.6423565063476563	-2.6864267578125	0		-0.9338223266601563	0.18899949645996095	0		-0.337078857421875	-3.241951171875	0		2.13846875	-1.0328631591796875	0		3.625726318359375	-0.7042760620117188	0		4.88581103515625	-0.49549066162109373	0		5.9360849609375	0.4553650817871094	0		-0.23743869018554686	5.89451220703125	0		
-0.0035549380779266357	0.0010083069801330566	0		0.6054925537109375	-2.674033203125	0		-0.9337724609375	0.18905186462402343	0		-0.3010787353515625	-3.243255126953125	0		2.1348837890625	-0.99380810546875	0		3.6429208984375	-0.6884404296875	0		4.8787373046875	-0.5074346923828125	0		5.9361376953125	0.45534075927734374	0		-0.25243128967285156	5.883703125	0		
-0.007567357063293457	-0.0029232521057128906	0		0.632464599609375	-2.677271728515625	0		-0.9428121337890625	0.18217735290527343	0		-0.34392379760742187	-3.2268056640625	0		2.132260986328125	-0.9567703857421875	0		3.59896240234375	-0.6860159301757812	0		4.858798828125	-0.5032546081542969	0		5.9320908203125	0.4473564453125	0		-0.25333309936523435	5.885744140625	0		
-0.003524411916732788	0.0010541939735412597	0		0.6075014038085937	-2.67201611328125	0		-0.933739013671875	0.18911203002929688	0		-0.32899935913085937	-3.2329326171875	0		2.13470654296875	-0.9107892456054687	0		3.57312890625	-0.6687704467773438	0		4.837810546875	-0.5020651245117187	0		5.93617529296875	0.4552955322265625	0		-0.2513202972412109	5.8827431640625	0		
-0.0035414810180664064	0.0010577540397644044	0		0.6115132446289062	-2.668053955078125	0		-0.9337554321289062	0.1891190185546875	0		-0.354900634765625	-3.219675537109375	0		2.1029990234375	-0.878483642578125	0		3.580109130859375	-0.6688482055664062	0		4.8267919921875	-0.5019723815917969	0		5.94108203125	0.4472288818359375	0		-0.23522882080078125	5.89159130859375	0		
-5.490059852600097E-4	0.004018840789794922	0		0.6165426025390625	-2.661113037109375	0		-0.9337918701171875	0.18911012268066407	0		-0.3258144226074219	-3.2069677734375	0		2.1025263671875	-0.82048779296875	0		3.5654619140625	-0.62871630859375	0		4.8159306640625	-0.4838793029785156	0		5.94527880859375	0.47117486572265627	0		-0.21729112243652343	5.88840673828125	0		
-0.003631582021713257	0.0010249079465866088	0		0.631533447265625	-2.657281005859375	0		-0.9478743286132812	0.1862210693359375	0		-0.37376095581054686	-3.196525146484375	0		2.086796630859375	-0.78735205078125	0		3.53829443359375	-0.6404680786132813	0		4.79777197265625	-0.49471575927734374	0		5.9360693359375	0.45525369262695314	0		-0.2514150543212891	5.88271435546875	0		
-0.007737507820129394	-0.0029740140438079834	0		0.6314802856445313	-2.657315673828125	0		-0.9100221557617187	0.17780888366699218	0		-0.33680322265625	-3.195925048828125	0		2.094083251953125	-0.7514487915039062	0		3.535366943359375	-0.626458740234375	0		4.78264990234375	-0.5005821228027344	0		5.931921875	0.4472864685058594	0		-0.2515134735107422	5.8826748046875	0		
-0.007814099788665771	-0.003027964115142822	0		0.6064751586914062	-2.652121826171875	0		-0.9470984497070313	0.17810707092285155	0		-0.38071560668945315	-3.1815546875	0		2.074392578125	-0.7122930297851563	0		3.523451416015625	-0.610367919921875	0		4.7626171875	-0.49640277099609376	0		5.93591943359375	0.4552418518066406	0		-0.2856851501464844	5.87794970703125	0		
